<?xml version="1.0" standalone="no"?>
<!DOCTYPE svg PUBLIC "-//W3C//DTD SVG 20010904//EN"
 "http://www.w3.org/TR/2001/REC-SVG-20010904/DTD/svg10.dtd">
<svg version="1.0" xmlns="http://www.w3.org/2000/svg"
 width="784.000000pt" height="784.000000pt" viewBox="0 0 784.000000 784.000000"
 preserveAspectRatio="xMidYMid meet">
<metadata>
Created by potrace 1.14, written by Peter Selinger 2001-2017
</metadata>
<g transform="translate(0.000000,784.000000) scale(0.100000,-0.100000)"
fill="#000000" stroke="none">
<path d="M2200 7618 c-12 -40 -24 -82 -28 -93 -4 -11 -7 -24 -8 -30 -2 -18
-17 -70 -23 -80 -3 -5 -6 -14 -7 -20 -1 -5 -12 -44 -23 -85 -12 -41 -23 -82
-26 -90 -2 -8 -4 -15 -5 -15 -1 0 -3 -7 -5 -15 -2 -8 -18 -62 -35 -120 -17
-58 -32 -109 -33 -115 -2 -5 -6 -16 -10 -22 -5 -7 -6 -13 -2 -13 3 0 1 -8 -4
-18 -6 -11 -12 -30 -14 -43 -3 -13 -12 -46 -20 -74 -9 -27 -30 -97 -47 -155
-49 -171 -67 -230 -94 -318 -14 -46 -26 -91 -26 -101 0 -10 -3 -21 -7 -25 -7
-6 -57 -171 -69 -225 -3 -13 -10 -34 -16 -45 -6 -12 -10 -21 -9 -21 4 0 -17
-79 -37 -140 -9 -27 -15 -54 -14 -59 2 -4 -1 -13 -6 -20 -6 -6 -13 -27 -18
-46 -4 -19 -8 -37 -9 -40 -3 -13 -41 -137 -76 -255 -22 -71 -42 -137 -44 -146
-2 -9 -18 -63 -35 -120 -26 -87 -52 -177 -64 -224 -2 -5 -6 -17 -9 -25 -5 -13
-54 -179 -61 -205 -1 -5 -10 -37 -20 -70 -10 -33 -19 -64 -21 -70 -1 -5 -5
-17 -8 -25 -5 -13 -55 -187 -62 -215 -1 -5 -5 -17 -8 -25 -4 -8 -27 -87 -53
-175 -52 -181 -103 -352 -185 -625 -11 -36 -21 -72 -23 -80 -2 -8 -16 -55 -31
-105 -15 -49 -30 -103 -35 -120 -4 -16 -22 -77 -40 -135 -18 -58 -33 -112 -35
-120 -2 -8 -22 -76 -45 -150 -22 -74 -42 -142 -45 -151 -2 -9 -13 -49 -26 -90
-12 -41 -23 -78 -25 -84 -1 -5 -18 -64 -37 -130 -20 -66 -48 -160 -62 -210
-15 -49 -36 -119 -46 -155 -11 -36 -22 -74 -24 -85 -3 -11 -14 -49 -26 -85
-12 -36 -22 -69 -23 -75 -2 -5 -9 -30 -16 -55 -15 -51 -17 -57 -24 -85 -3 -11
-14 -49 -24 -85 -56 -187 -95 -322 -126 -427 -19 -65 -40 -131 -46 -148 -6
-16 -11 -30 -10 -30 1 0 -4 -20 -11 -45 -7 -25 -14 -49 -15 -55 -1 -5 -23 -80
-49 -165 -25 -85 -48 -164 -50 -174 -4 -17 -18 -65 -31 -106 -3 -8 -4 -15 -3
-15 1 0 -2 -9 -8 -20 -6 -11 -13 -32 -17 -47 l-6 -28 1178 0 1178 0 28 98 c15
53 37 125 48 160 11 34 21 68 22 75 2 6 11 38 20 71 10 32 19 64 21 70 1 6 5
18 8 26 6 15 66 220 73 250 4 18 68 234 91 305 8 28 16 55 17 60 2 6 10 36 20
67 10 32 17 59 16 60 0 2 9 30 20 63 11 33 20 62 20 65 0 3 522 6 1160 8
l1159 2 16 -57 c9 -32 20 -69 25 -83 5 -14 18 -59 30 -100 12 -41 29 -97 38
-125 9 -27 17 -54 18 -60 1 -5 12 -44 25 -85 12 -41 24 -81 25 -88 3 -17 34
-121 45 -152 5 -14 10 -34 12 -45 1 -11 5 -24 9 -30 3 -5 13 -35 21 -65 9 -30
25 -86 36 -125 12 -38 23 -78 26 -88 2 -10 16 -57 31 -105 14 -48 28 -94 29
-102 2 -8 4 -16 5 -17 4 -4 7 -21 9 -38 1 -13 139 -15 1182 -15 1121 0 1181 1
1174 17 -4 10 -8 23 -9 28 -2 6 -8 28 -14 50 -6 22 -11 42 -11 45 0 3 -10 32
-21 65 -11 33 -21 62 -22 65 0 3 -2 10 -4 15 -1 6 -26 91 -54 190 -28 99 -55
189 -60 200 -5 11 -11 34 -15 50 -3 17 -19 73 -35 125 -16 52 -43 142 -60 200
-17 58 -40 135 -51 171 -11 37 -21 75 -24 85 -4 22 -164 572 -173 594 -5 13
-27 88 -52 175 -4 17 -20 68 -34 115 -15 47 -29 94 -31 104 -2 11 -11 40 -20
66 -9 26 -17 55 -20 66 -2 10 -11 42 -19 69 -8 28 -30 104 -49 170 -19 66 -40
132 -46 148 -6 15 -8 27 -5 27 2 0 0 8 -5 18 -6 11 -12 30 -15 43 -2 13 -11
44 -20 69 -8 25 -22 70 -30 100 -8 30 -24 87 -36 125 -12 39 -23 77 -25 85 -2
8 -15 53 -30 100 -14 47 -28 92 -30 100 -5 18 -35 121 -39 135 -2 6 -6 17 -9
25 -3 8 -15 47 -25 85 -11 39 -39 133 -62 210 -22 77 -43 147 -45 155 -2 8
-16 53 -30 100 -14 47 -28 94 -30 105 -2 11 -10 40 -19 64 -9 24 -16 49 -16
57 0 7 -4 23 -9 36 -5 13 -10 28 -11 33 -1 6 -7 21 -12 35 -5 14 -11 32 -13
41 -2 9 -13 49 -25 90 -12 41 -23 79 -25 84 -1 6 -4 17 -7 25 -3 8 -11 33 -17
55 -6 22 -20 69 -31 105 -11 36 -22 74 -24 85 -3 11 -14 49 -26 85 -11 36 -23
79 -26 95 -3 17 -11 36 -16 43 -6 6 -8 12 -4 12 3 0 1 12 -5 28 -6 15 -13 36
-15 47 -2 11 -13 48 -24 82 -11 34 -22 70 -23 80 -2 10 -7 25 -10 33 -5 12
-37 120 -42 140 -7 26 -30 104 -42 140 -8 25 -16 52 -18 60 -2 8 -20 71 -40
140 -71 243 -93 317 -159 545 -37 127 -70 237 -73 245 -3 8 -7 20 -8 25 -2 6
-19 66 -40 135 -20 69 -39 132 -41 140 -13 51 -46 167 -51 180 -3 8 -7 20 -9
25 -1 6 -18 64 -37 130 l-34 120 -1701 3 -1701 2 -21 -72z m1734 -2220 c-3 -4
0 -8 6 -8 6 0 9 -3 7 -7 -3 -5 0 -19 6 -33 5 -14 11 -29 12 -35 2 -5 8 -30 15
-55 7 -25 13 -49 15 -55 1 -5 5 -17 8 -25 10 -27 45 -144 57 -190 6 -25 14
-52 17 -60 8 -20 8 -20 17 -55 5 -16 15 -50 23 -75 8 -25 16 -52 18 -60 2 -8
9 -35 16 -60 7 -25 13 -48 15 -52 1 -5 2 -9 4 -10 1 -2 3 -10 5 -18 2 -8 18
-62 35 -120 18 -58 40 -134 50 -170 11 -36 28 -96 40 -135 12 -38 23 -78 25
-88 4 -16 19 -65 33 -107 3 -8 6 -20 7 -26 2 -6 14 -49 29 -96 14 -47 26 -91
26 -97 0 -8 -142 -11 -501 -11 -472 0 -500 1 -496 18 3 9 9 31 13 47 4 17 8
35 10 40 1 6 19 64 39 130 20 66 39 127 40 135 2 8 13 47 25 85 31 101 80 268
85 285 2 8 4 15 5 15 1 0 3 7 5 15 1 8 13 49 25 90 12 41 23 80 24 85 2 6 13
44 25 85 13 41 24 80 26 85 1 6 4 17 8 25 5 13 24 79 73 250 9 30 25 82 35
115 10 33 20 69 22 80 1 11 5 25 8 30 3 6 12 30 19 54 14 43 14 44 22 16 4
-16 5 -32 2 -37z"/>
</g>
</svg>
